<svg
  width="1024"
  height="1024"
  viewBox="0 0 1024 1024"
  xmlns="http://www.w3.org/2000/svg"
>
  <!-- Background squircle -->
  <rect
    x="0"
    y="0"
    width="1024"
    height="1024"
    rx="220"
    fill="#1F2124"
  />

  <!-- Subtle highlight (optional, safe SVG) -->
  <path
    d="M0 220C0 98.4974 98.4974 0 220 0H804C925.503 0 1024 98.4974 1024 220V230C1024 108.497 925.503 10 804 10H220C98.4974 10 0 108.497 0 230V220Z"
    fill="white"
    opacity="0.05"
  />

  <!-- Main glyph -->
  <g transform="translate(192 192) scale(0.625)" shape-rendering="crispEdges" fill="#EA8C10">
  <path d="M0 0 H640 V160 H160 V480 H0 V0 Z"/>
  <path d="
  M384 864
  V1024
  H1024
  V544
  H864
  V864
  Z
"/>
  <rect x="192" y="640" width="160" height="160"/>
  <rect x="672" y="224" width="160" height="160"/>
</g>
</svg>
